<svg xmlns:dc="http://purl.org/dc/elements/1.1/" xmlns:cc="http://creativecommons.org/ns#" xmlns:rdf="http://www.w3.org/1999/02/22-rdf-syntax-ns#"  xmlns="http://www.w3.org/2000/svg" xmlns:sodipodi="http://sodipodi.sourceforge.net/DTD/sodipodi-0.dtd" xmlns:inkscape="http://www.inkscape.org/namespaces/inkscape" id="svg1890" sodipodi:version="0.32" inkscape:version="0.48.4 r9939" width="100%" height="100%" version="1.0" sodipodi:docname="AJAX1.svg" inkscape:output_extension="org.inkscape.output.svg.inkscape" xmlns:xlink="http://www.w3.org/1999/xlink" viewBox="-0.8829910755157471 -0.882990837097168 502.10955810546875 502.10955810546875"><rect id="svgEditorBackground" x="-0.8829910159111023" y="-0.8829907774925232" width="502.10955810546875" height="502.10955810546875" style="fill: none; stroke: none;"/>
  <metadata id="metadata1895">
    <rdf:RDF>
      <cc:Work rdf:about="">
        <dc:format>image/svg+xml</dc:format>
        <dc:type rdf:resource="http://purl.org/dc/dcmitype/StillImage"/>
      </cc:Work>
    </rdf:RDF>
  </metadata>
  <defs id="defs1893">
    <inkscape:perspective sodipodi:type="inkscape:persp3d" inkscape:vp_x="0 : 235 : 1" inkscape:vp_y="0 : 1000 : 0" inkscape:vp_z="470 : 235 : 1" inkscape:persp3d-origin="235 : 156.66667 : 1" id="perspective10"/>
    <inkscape:perspective id="perspective2390" inkscape:persp3d-origin="372.04724 : 350.78739 : 1" inkscape:vp_z="744.09448 : 526.18109 : 1" inkscape:vp_y="0 : 1000 : 0" inkscape:vp_x="0 : 526.18109 : 1" sodipodi:type="inkscape:persp3d"/>
    <inkscape:perspective id="perspective3168" inkscape:persp3d-origin="372.04724 : 350.78739 : 1" inkscape:vp_z="744.09448 : 526.18109 : 1" inkscape:vp_y="0 : 1000 : 0" inkscape:vp_x="0 : 526.18109 : 1" sodipodi:type="inkscape:persp3d"/>
    <inkscape:perspective id="perspective2400" inkscape:persp3d-origin="372.04724 : 350.78739 : 1" inkscape:vp_z="744.09448 : 526.18109 : 1" inkscape:vp_y="0 : 1000 : 0" inkscape:vp_x="0 : 526.18109 : 1" sodipodi:type="inkscape:persp3d"/>
    <inkscape:perspective id="perspective2391" inkscape:persp3d-origin="372.04724 : 350.78739 : 1" inkscape:vp_z="744.09448 : 526.18109 : 1" inkscape:vp_y="0 : 1000 : 0" inkscape:vp_x="0 : 526.18109 : 1" sodipodi:type="inkscape:persp3d"/>
  </defs>
  <sodipodi:namedview inkscape:window-height="1004" inkscape:window-width="1280" inkscape:pageshadow="2" inkscape:pageopacity="0.0" guidetolerance="10.0" gridtolerance="10.0" objecttolerance="10.0" borderopacity="1.0" bordercolor="#666666" pagecolor="#ffffff" id="base" inkscape:zoom="1.2451783" inkscape:cx="212.8544" inkscape:cy="220.05922" inkscape:window-x="-8" inkscape:window-y="-8" inkscape:current-layer="svg1890" showgrid="false" fit-margin-top="0.2" fit-margin-left="0.2" fit-margin-right="0.2" fit-margin-bottom="0.2" inkscape:window-maximized="1" showguides="true" inkscape:guide-bbox="true"/>
  <path style="fill-opacity: 1; fill-rule: nonzero; stroke: none;" d="M496.89459228515625,242.33616638183594c4.33197021484375,4.3319549560546875,4.33197021484375,11.339279174804688,0,15.671249389648438l-238.88717651367188,238.88717651367188c-4.3319549560546875,4.33197021484375,-11.33929443359375,4.33197021484375,-15.671249389648438,0l-238.88719177246094,-238.88720703125c-4.331969261169434,-4.33197021484375,-4.331969261169434,-11.339279174804688,-0.000010013580322265625,-15.671234130859375l238.88719177246094,-238.88719177246094c4.3319549560546875,-4.331949710845947,11.33929443359375,-4.331943988800049,15.671234130859375,0.000010013580322265625Z" id="path5216" inkscape:connector-curvature="0" sodipodi:nodetypes="sssssssss" fill="#FFF500"/>
  <path style="fill-opacity: 1; fill-rule: nonzero; stroke: none;" d="M250.17178344726562,12.231762886047363l-237.94000244140625,237.94000244140625l237.94000244140625,237.9400177001953l237.94003295898438,-237.94000244140625ZM266.9061279296875,43.10688781738281l190.33053588867188,190.33055114746094c9.2596435546875,9.259628295898438,9.2596435546875,24.209014892578125,0,33.46868896484375l-190.33050537109375,190.33056640625c-9.2596435546875,9.2596435546875,-24.209075927734375,9.2596435546875,-33.468719482421875,0l-190.33056640625,-190.33056640625c-9.259628295898438,-9.2596435546875,-9.259639739990234,-24.20904541015625,0,-33.46868896484375l190.33056640625,-190.33056640625c9.2596435546875,-9.259654998779297,24.20904541015625,-9.259632110595703,33.46868896484375,0.000019073486328125Z" id="path17826" inkscape:connector-curvature="0" sodipodi:nodetypes="cccccsssssssss" fill="#0093DD"/>
  <path inkscape:connector-curvature="0" d="M348.49420166015625,234.09390258789062l2.613555908203125,-2.4706268310546875c0.571685791015625,0,1.04132080078125,-0.449188232421875,1.04132080078125,-1.0617523193359375l0,-3.879486083984375c0,-0.612548828125,-0.469635009765625,-1.1025848388671875,-1.04132080078125,-1.1025848388671875l-72.83236694335938,0c-0.57171630859375,0,-1.04132080078125,0.4900360107421875,-1.04132080078125,1.1025848388671875l0,3.879486083984375c0,0.6125640869140625,0.469635009765625,1.0813751220703125,1.04132080078125,1.0813751220703125l2.634002685546875,2.4502105712890625l0,15.252517700195312c-0.612579345703125,1.8376617431640625,-0.57171630859375,3.6344757080078125,-3.634490966796875,2.9810943603515625l-13.966156005859375,0l0,-4.0836944580078125c0,-1.9193267822265625,-1.57220458984375,-3.5119476318359375,-3.532379150390625,-3.5119476318359375l-1.265899658203125,0c-1.960174560546875,0,-3.532379150390625,1.592620849609375,-3.532379150390625,3.5119476318359375l0,4.0836944580078125l-17.049362182617188,0l0,-4.6962432861328125c0,-5.8192291259765625,-4.7370758056640625,-10.57672119140625,-10.57672119140625,-10.57672119140625l-7.799835205078125,0c-5.83966064453125,0,-10.597122192382812,4.7574920654296875,-10.597122192382812,10.57672119140625l0,4.6962432861328125l-24.31829833984375,0l0,-25.073776245117188l-2.062255859375,0l0,-2.8993988037109375c-0.857574462890625,-2.5931549072265625,7.3914337158203125,-7.2281036376953125,8.9432373046875,-8.289871215820312c3.3282012939453125,-2.3480987548828125,5.1454315185546875,-7.5139617919921875,8.800308227539062,-9.147430419921875c3.5936279296875,-1.5926361083984375,7.799835205078125,1.0209197998046875,14.639984130859375,-1.939727783203125c6.3296966552734375,-2.6748046875,5.7988128662109375,-9.0045166015625,12.251022338867188,-10.597152709960938c2.7564697265625,-0.73504638671875,5.4312896728515625,-0.346282958984375,8.187774658203125,-0.6942138671875c2.388946533203125,-0.3479461669921875,4.77789306640625,-2.02142333984375,7.2281036376953125,-1.6743011474609375c6.8605804443359375,1.020904541015625,11.577255249023438,5.9008941650390625,18.989089965820312,2.7564849853515625c1.470123291015625,-0.612548828125,2.286865234375,-1.6947174072265625,3.6549072265625,-2.286865234375c3.3077392578125,-1.4505157470703125,6.023406982421875,-1.6538848876953125,8.9432373046875,-4.104095458984375c4.839141845703125,-4.1449127197265625,8.555267333984375,-10.12750244140625,12.516448974609375,-15.1300048828125c8.126495361328125,-10.12750244140625,10.433746337890625,-22.929824829101562,-0.5308837890625,-31.566802978515625c-12.63897705078125,-9.984573364257812,-14.742034912109375,-3.1444091796875,-23.358642578125,-3.3690185546875c-5.757965087890625,-0.114410400390625,-8.187789916992188,-4.818756103515625,-14.313262939453125,-4.6145477294921875c-9.208709716796875,0.2662506103515625,-19.560821533203125,5.635467529296875,-23.6649169921875,13.884490966796875c-0.6533966064453125,1.2447052001953125,-1.2659149169921875,1.858062744140625,-1.8784942626953125,3.0831756591796875c-2.49102783203125,1.22509765625,-5.5742034912109375,0,-8.0244140625,0c-5.5946197509765625,0,-11.72015380859375,0,-15.375030517578125,3.7161407470703125c-3.1240081787109375,1.837646484375,-6.819732666015625,3.67529296875,-7.432281494140625,6.778900146484375c-1.858062744140625,4.328704833984375,-3.103607177734375,8.003997802734375,-5.5742340087890625,11.10760498046875c-1.204681396484375,1.8172149658203125,-4.287841796875,3.0423431396484375,-6.7788848876953125,4.3082733154296875c-5.0433349609375,2.5318756103515625,-8.044845581054688,9.8416748046875,-8.106094360351562,15.293350219726562c-0.1224212646484375,4.5737152099609375,-4.55328369140625,7.02392578125,-6.697235107421875,10.27044677734375c-2.71563720703125,4.1653594970703125,-3.16485595703125,8.3919677734375,-2.1439056396484375,13.149444580078125c0.2041168212890625,0.9392547607421875,2.79730224609375,9.73956298828125,2.49102783203125,11.965164184570312l-1.9193267822265625,0l0,25.073776245117188l-18.539886474609375,0c-0.592132568359375,0.6533966064453125,-1.470123291015625,1.34759521484375,-1.470123291015625,2.5318756103515625c-0.6125335693359375,6.819732666015625,-3.7161407470703125,12.41436767578125,-4.9208221435546875,19.1524658203125c-0.816741943359375,4.41033935546875,-1.3680267333984375,9.024932861328125,-1.3067779541015625,13.5169677734375c0.0410003662109375,5.47210693359375,3.0219268798828125,8.636962890625,4.287872314453125,13.8232421875c0.6533966064453125,2.5318603515625,0.7146453857421875,6.697235107421875,2.4501953125,8.82073974609375c1.22509765625,1.530548095703125,3.920318603515625,2.34814453125,2.613555908203125,4.328704833984375c-1.67431640625,2.511474609375,-6.513458251953125,1.367218017578125,-8.51446533203125,3.307769775390625c-1.89892578125,1.89892578125,-1.57220458984375,6.309295654296875,-0.7758941650390625,8.636993408203125c0.6125335693359375,1.87847900390625,2.4501953125,1.22509765625,4.3082733154296875,1.22509765625l22.235610961914062,0c-0.224700927734375,1.1434326171875,-0.285858154296875,2.286834716796875,-0.285858154296875,3.491546630859375c0,12.14892578125,9.862075805664062,21.949737548828125,21.990585327148438,21.949737548828125c12.148956298828125,0,22.011032104492188,-9.800811767578125,22.011032104492188,-21.949737548828125c0,-1.203887939453125,-0.143707275390625,-2.34814453125,-0.306304931640625,-3.491546630859375l10.290878295898438,0c-0.122406005859375,1.1434326171875,-0.2450103759765625,2.286834716796875,-0.2450103759765625,3.491546630859375c0,12.14892578125,9.82122802734375,21.949737548828125,21.97015380859375,21.949737548828125c12.14892578125,0,21.970199584960938,-9.800811767578125,21.970199584960938,-21.949737548828125c0,-1.203887939453125,-0.081695556640625,-2.34814453125,-0.285858154296875,-3.491546630859375l20.72467041015625,0c-0.14208984375,1.1434326171875,-0.245025634765625,2.286834716796875,-0.245025634765625,3.491546630859375c0,12.14892578125,9.862091064453125,21.949737548828125,22.011016845703125,21.949737548828125c11.41387939453125,0,20.785888671875,-8.718658447265625,21.827239990234375,-19.826263427734375l23.80780029296875,0c0,0,9.1678466796875,-7.39141845703125,9.372039794921875,-8.044830322265625c0.93927001953125,-2.8177490234375,0.816741943359375,-6.615570068359375,-0.42877197265625,-7.861083984375c-1.245513916015625,-1.26593017578125,-2.695220947265625,0.408355712890625,-2.695220947265625,-2.10308837890625l0,-21.235107421875c0,-11.02593994140625,6.431854248046875,-20.806304931640625,7.10565185546875,-24.154937744140625c0.612548828125,-3.287353515625,2.94024658203125,-11.842681884765625,-0.449188232421875,-11.842681884765625l-14.55841064453125,0c-3.144378662109375,0,-1.87847900390625,-3.307769775390625,-1.87847900390625,-3.307769775390625c0,0,-0.632965087890625,-13.761978149414062,0,-17.927337646484375l3.001495361328125,-2.71563720703125ZM315.7431335449219,260.08648681640625c0,-1.898895263671875,-1.59259033203125,-3.49151611328125,-3.511962890625,-3.49151611328125l-6.2684326171875,0c-1.93975830078125,0,-3.573211669921875,-1.5926361083984375,-3.573211669921875,-3.5323638916015625l0,-12.924835205078125c0,-1.960174560546875,1.633453369140625,-3.5323944091796875,3.573211669921875,-3.5323944091796875l29.341217041015625,0c1.960174560546875,0,3.532379150390625,1.5714111328125,3.532379150390625,3.5323944091796875l0,12.924835205078125c0,1.939727783203125,-1.572235107421875,3.5323638916015625,-3.532379150390625,3.5323638916015625l-3.55279541015625,0c-1.960174560546875,0,-3.532379150390625,1.5926513671875,-3.532379150390625,3.49151611328125l0,33.1390380859375c0,1.96014404296875,-1.57220458984375,3.55279541015625,-3.511962890625,3.55279541015625l-5.45172119140625,0c-1.939697265625,0,-3.511962890625,-1.5926513671875,-3.511962890625,-3.55279541015625l0,-33.1390380859375" style="fill-opacity: 1; fill-rule: nonzero; stroke: none;" id="path5562" transform="matrix(1.26537 0 0 1.26537 -63.2648 -88.0457)" fill="#0093DD"/>
</svg>